<?xml version="1.0" encoding="UTF-8"?>
<svg id="Layer_2" data-name="Layer 2" xmlns="http://www.w3.org/2000/svg" viewBox="0 0 752.91 102.37">
  <g id="Layer_1-2" data-name="Layer 1">
    <g>
      <path d="m488.57,77.96c-4.34,0-8.36-.75-12.05-2.24-3.7-1.5-6.89-3.65-9.59-6.47s-4.83-6.23-6.38-10.25-2.36-8.58-2.42-13.68c0-4.81.76-9.22,2.29-13.24,1.52-4.02,3.67-7.46,6.42-10.34,2.76-2.87,6.06-5.12,9.9-6.73s8.08-2.42,12.71-2.42c7.33,0,13.42,1.73,18.26,5.19,4.84,3.46,8.29,8.45,10.34,14.96h-6.6c-.7-1.99-1.67-3.89-2.9-5.68s-2.76-3.36-4.58-4.71-3.93-2.43-6.34-3.26c-2.41-.82-5.16-1.23-8.27-1.23-3.81,0-7.23.66-10.25,1.98s-5.57,3.18-7.66,5.59c-2.08,2.41-3.68,5.28-4.8,8.62s-1.67,7.04-1.67,11.09.62,8.02,1.85,11.4c1.23,3.37,2.93,6.26,5.1,8.67s4.75,4.25,7.74,5.54,6.25,1.94,9.77,1.94c4.17,0,7.68-.66,10.56-1.98,2.87-1.32,5.21-3.04,7-5.15s3.08-4.49,3.87-7.13,1.22-5.28,1.28-7.92h-25.08v-5.54h30.97v31.77h-5.98v-6.95c0-.7.03-1.38.09-2.02,0-.7.03-1.44.09-2.2-.65,1.23-1.58,2.57-2.82,4-1.23,1.44-2.82,2.79-4.75,4.05-1.94,1.26-4.24,2.3-6.91,3.12s-5.73,1.23-9.2,1.23h0Z"/>
      <path d="m531.69,13.73h16.89c3.17,0,6.13.21,8.89.62s5.19,1.38,7.3,2.91c2.38,1.53,4.16,3.5,5.35,5.91s1.78,5.17,1.78,8.29c0,2.76-.44,5.16-1.32,7.19s-2.06,3.76-3.56,5.2c-1.49,1.44-3.21,2.59-5.14,3.44s-3.95,1.46-6.06,1.81c1.3,2.05,2.67,4.26,4.11,6.6,1.44,2.35,2.92,4.73,4.42,7.13,1.5,2.4,2.97,4.8,4.41,7.17,1.44,2.38,2.8,4.62,4.09,6.73h-7.66l-16.28-26.84h-10.73v26.84h-6.51V13.73h.02Zm6.51,30.62h10.47c2.46,0,4.68-.2,6.64-.61s3.62-1.11,4.97-2.1c1.52-.99,2.7-2.28,3.52-3.86s1.23-3.57,1.23-5.96c0-2.69-.54-4.92-1.63-6.71-1.09-1.78-2.6-3.14-4.53-4.08-2.52-1.17-5.93-1.75-10.21-1.75h-10.47v25.08h.01Z"/>
      <path d="m612.67,12.59c4.69,0,8.98.79,12.85,2.38,3.87,1.58,7.18,3.8,9.94,6.64,2.76,2.85,4.9,6.28,6.42,10.3,1.53,4.02,2.29,8.49,2.29,13.42s-.73,9.39-2.2,13.38-3.56,7.42-6.29,10.3-6.03,5.09-9.9,6.64-8.21,2.33-13.02,2.33-9.06-.78-12.94-2.33-7.19-3.77-9.94-6.64c-2.76-2.87-4.88-6.31-6.38-10.3s-2.24-8.45-2.24-13.38.76-9.31,2.29-13.33c1.52-4.02,3.67-7.46,6.42-10.34,2.76-2.87,6.06-5.1,9.9-6.69,3.84-1.58,8.11-2.38,12.8-2.38h0Zm-.09,5.28c-3.81,0-7.23.66-10.25,1.98s-5.59,3.18-7.7,5.59-3.73,5.28-4.84,8.62c-1.12,3.34-1.67,7.07-1.67,11.18s.57,7.76,1.72,11.13c1.14,3.37,2.77,6.28,4.88,8.71s4.68,4.31,7.7,5.63,6.44,1.98,10.25,1.98,7.05-.66,10.08-1.98c3.02-1.32,5.59-3.18,7.7-5.59,2.11-2.4,3.74-5.29,4.88-8.67,1.14-3.37,1.72-7.11,1.72-11.22s-.57-7.85-1.72-11.22c-1.14-3.37-2.77-6.26-4.88-8.67-2.11-2.4-4.68-4.25-7.7-5.54s-6.41-1.94-10.16-1.94h-.01Z"/>
      <path d="m677.4,77.96c-3.93,0-7.51-.69-10.74-2.07s-5.78-3.36-7.66-5.94c-1.58-2.23-2.66-4.71-3.21-7.44-.56-2.73-.84-5.91-.84-9.55V13.82h6.42v37.78c0,2.87.12,5.4.35,7.6s.82,4.17,1.76,5.93c1.23,2.29,3.05,4.12,5.46,5.49,2.4,1.38,5.25,2.06,8.54,2.06s6.2-.69,8.58-2.06,4.15-3.21,5.32-5.49c.94-1.76,1.52-3.73,1.76-5.93.23-2.2.35-4.73.35-7.6V13.82h6.42v39.16c0,3.64-.28,6.82-.84,9.55-.56,2.73-1.63,5.21-3.21,7.44-1.88,2.58-4.46,4.56-7.74,5.94-3.29,1.38-6.86,2.07-10.74,2.07l.02-.02Z"/>
      <path d="m713.66,13.82h17.03c2.63,0,5.14.18,7.51.53s4.49,1.03,6.37,2.02c2.52,1.29,4.54,3.17,6.06,5.63s2.28,5.72,2.28,9.77c0,3.17-.55,5.93-1.65,8.27-1.1,2.35-2.66,4.25-4.69,5.72-1.94,1.53-4.3,2.63-7.08,3.3-2.79.67-5.88,1.01-9.28,1.01h-10.03v26.66h-6.51V13.82h0Zm6.51,30.89h10.38c2.17,0,4.21-.23,6.12-.7s3.55-1.22,4.93-2.24c1.38-1.03,2.46-2.36,3.26-4,.79-1.64,1.19-3.64,1.19-5.98,0-8.39-5.34-12.58-16.01-12.58h-9.85v25.52l-.02-.02Z"/>
      <path d="m190,77.88c-17.01,0-32.76-11.79-32.76-32.22,0-21.78,15.84-32.94,32.85-32.94,8.46,0,15.57,3.51,19.53,8.01l-3.24,3.15c-4.86-4.41-9.72-6.21-15.39-6.21-10.62,0-21.51,9.36-21.51,27.36s10.44,27.54,22.32,27.54c7.02,0,12.33-2.16,17.1-7.2l3.15,2.97c-5.94,6.39-12.96,9.54-22.05,9.54h0Z"/>
      <path d="m271.72,13.8v63h-9.81v-31.5c-3.87,2.16-10.98,2.97-17.01,1.26-5.13-1.26-15.39-5.31-15.39.36v29.88h-9.81V13.8h9.81v28.08c3.78-2.43,10.71-3.42,16.92-1.8,11.61,3.15,15.48,4.23,15.48,0V13.8h9.81Z"/>
      <path d="m330.31,77.88c-13.05,0-23.31-2.97-36.99-16.83v15.75h-9.9V13.8c8.01-.72,13.05-1.08,16.74-1.08,18.63,0,29.07,8.37,29.07,20.52,0,15.39-16.83,22.32-33.84,24.3,13.68,10.8,21.87,12.15,34.92,12.15v8.19Zm-36.99-60.75v36.72c16.83-1.26,25.92-7.92,25.92-20.61,0-11.43-8.55-16.38-19.62-16.38-1.62,0-3.78,0-6.3.27h0Z"/>
      <path d="m338.77,13.8h9.81v63h-9.81V13.8Z"/>
      <path d="m377.11,16.86c-5.76,0-9.36,3.15-9.36,8.28,0,14.49,29.7,13.41,29.7,34.11,0,12.24-10.26,18.63-20.61,18.63-7.74,0-15.21-4.05-19.71-10.71l3.69-2.97c4.32,5.67,10.98,8.46,16.56,8.46,6.57,0,11.25-3.87,11.25-9.18,0-14.85-29.79-15.21-29.79-34.29,0-10.89,9.18-16.47,18.27-16.47,4.32,0,8.46,1.26,11.16,3.87l-2.43,3.15c-2.61-1.8-5.58-2.88-8.73-2.88h0Z"/>
      <path d="m435.61,18.84h-14.58v57.96h-9.81V18.84h-14.67v-5.04h39.06v5.04Z"/>
      <path d="m129.68,33.53L100.06,0H29.62L0,33.53l47.23,68.84,17.61-25.67,17.61,25.67,47.23-68.84ZM64.84,12.53l19.12,21.64-19.12,27.86-19.12-27.86,19.12-21.64Zm-17.61,75.18L10.5,34.17l22.86-25.87h24.15l-22.29,25.23,24.59,35.84-12.58,18.34Zm47.23-54.18l-22.29-25.23h24.16l22.86,25.88-36.73,53.53-12.58-18.34,24.59-35.84h0Z"/>
    </g>
  </g>
</svg>