<svg xmlns="http://www.w3.org/2000/svg" viewBox="-5299 -2084 406.126 41.758">
  <g id="icon_-_inline_logo_-_w_ventures" data-name="icon - inline logo - w ventures" transform="translate(-6014 -3394)">
    <path id="Path_1249" data-name="Path 1249" d="M18.038,41.758,0,3.021H7.733L21.221,34.169ZM55.93,2.086H48.2l-10.3,23.864L27.5,0,24.224,8.093l13.65,32.731Z" transform="translate(715 1310)"/>
    <path id="Path_1248" data-name="Path 1248" d="M81.443,438.863,70.531,410.921H63.478l15.038,36.633h5.656l15.038-36.633H92.355Zm292.171-12.7c-6.987-1.671-8.65-2.941-8.65-5.749v-.134c0-2.407,2.2-4.345,5.922-4.345a16.228,16.228,0,0,1,9.848,3.743l3.393-4.813a20.086,20.086,0,0,0-13.175-4.546c-7.186,0-12.376,4.345-12.376,10.562v.134c0,6.685,4.325,9.025,12.043,10.9,6.72,1.538,8.184,2.941,8.184,5.548v.134c0,2.674-2.462,4.546-6.388,4.546-4.458,0-7.985-1.738-11.445-4.746l-3.859,4.546a22.324,22.324,0,0,0,15.1,5.816c7.585,0,12.908-4.078,12.908-10.9v-.134C385.191,430.841,381.266,428.034,373.614,426.162Zm-47.442,5.615h18.165v-5.749H326.172v-9.493h20.494v-5.749H319.784V447.22h27.148v-5.749h-20.76Zm-27.747,1.738,9.781,13.771h-7.585l-8.916-12.7H283.72v12.7h-6.388V410.854H293.5c4.525,0,8.118,1.337,10.447,3.61a10.99,10.99,0,0,1,2.994,7.821v.134C307.009,428.5,303.416,432.045,298.425,433.515ZM293.1,428.97c4.525,0,7.452-2.407,7.452-6.083v-.134c0-3.877-2.795-6.016-7.519-6.016h-9.249V428.97Zm-176.793,2.808h18.165v-5.749H116.309v-9.493H136.8v-5.749H109.922V447.22h27.148v-5.749h-20.76Zm58.754,4.278-19.429-25.2h-5.922v36.433h6.255v-25.87l19.962,25.87h5.323V410.854H175v25.2Zm81.909-4.211c0,6.685-3.46,10.094-9.116,10.094-5.722,0-9.182-3.61-9.182-10.362V410.854h-6.388v20.991c0,10.562,5.988,16.044,15.437,16.044s15.57-5.482,15.57-16.311V410.921h-6.388v20.924ZM192.23,416.8h11.511v30.483h6.388V416.8H221.64v-5.95H192.23v5.95Z" transform="translate(736 899.681)"/>
  </g>
</svg>
