<svg xmlns="http://www.w3.org/2000/svg" viewBox="-5299 -1998 406.126 41.757">
  <defs>
    <style>
      .cls-1 {
        fill: #fff;
      }
    </style>
  </defs>
  <g id="icon_-_inline_logo_-_w_ventures" data-name="icon - inline logo - w ventures" transform="translate(-6014 -3308)">
    <path id="Union_61" data-name="Union 61" class="cls-1" d="M6014,3311.021h7.732l13.488,31.147-3.182,7.589Zm24.224,5.071L6041.5,3308l10.395,25.951,10.306-23.864h7.732l-18.056,38.736Zm229.063,13.433v-20.99h6.387v20.722c0,6.753,3.461,10.362,9.183,10.362,5.655,0,9.116-3.409,9.116-10.094h-.067V3308.6h6.389v20.656c0,10.829-6.122,16.311-15.57,16.311S6267.286,3340.087,6267.286,3329.525Zm124.826,10.094,3.861-4.545c3.459,3.008,6.984,4.745,11.443,4.745,3.927,0,6.389-1.871,6.389-4.545v-.134c0-2.607-1.465-4.01-8.185-5.548-7.718-1.872-12.042-4.212-12.042-10.9v-.134c0-6.216,5.189-10.562,12.376-10.562a20.086,20.086,0,0,1,13.173,4.545l-3.393,4.813a16.226,16.226,0,0,0-9.846-3.743c-3.727,0-5.923,1.938-5.923,4.346v.134c0,2.807,1.665,4.076,8.651,5.749,7.652,1.871,11.577,4.679,11.511,10.562v.134c0,6.819-5.323,10.9-12.908,10.9A22.331,22.331,0,0,1,6392.112,3339.62Zm-278.6,5.615-15.038-36.634h7.053l10.913,27.942,10.911-27.942h6.854l-15.038,36.634Zm222.1-.268-8.917-12.7h-7.984v12.7h-6.389v-36.432H6328.5c4.524,0,8.118,1.336,10.447,3.609a10.994,10.994,0,0,1,2.994,7.821v.134c.066,6.084-3.527,9.627-8.517,11.1l9.782,13.771Zm-16.834-18.317h9.315c4.526,0,7.454-2.406,7.454-6.083v-.134c0-3.878-2.8-6.016-7.52-6.016h-9.249Zm-80.045,18.317v-30.483H6227.23v-5.949h29.409v5.949h-11.511v30.483Zm-27.813,0-19.962-25.87v25.87h-6.253v-36.432h5.921L6210,3333.651v-25.116h6.255v36.432Zm143.856-.066v-36.434h26.882v5.749h-20.494v9.494h18.164v5.749h-18.164v9.693h20.76v5.749Zm-209.861,0v-36.434h26.88v5.749H6151.31v9.494h18.164v5.749H6151.31v9.693h20.759v5.749Z" transform="translate(-5299 -1998)"/>
  </g>
</svg>
