<?xml version="1.0" encoding="utf-8"?>
<!-- Generator: Adobe Illustrator 26.0.1, SVG Export Plug-In . SVG Version: 6.00 Build 0)  -->
<svg version="1.1" id="Layer_1" xmlns="http://www.w3.org/2000/svg" xmlns:xlink="http://www.w3.org/1999/xlink" x="0px" y="0px"
	 viewBox="0 0 186.4 196.9" style="enable-background:new 0 0 186.4 196.9;" xml:space="preserve">
<style type="text/css">
	.st0{fill:#31A4FF;}
	.st1{fill:none;}
	.st2{fill:none;stroke:#FFFFFF;stroke-width:4;}
	.st3{enable-background:new    ;}
	.st4{fill:#FFFFFF;}
</style>
<g>
	
		<rect id="arrow" x="85.4" y="176.7" transform="matrix(0.7071 -0.7071 0.7071 0.7071 -103.401 120.5341)" class="st0" width="16.8" height="16.8"/>
	<ellipse id="bg_blue" class="st0" cx="93.2" cy="93.2" rx="93.2" ry="93.2"/>
	<g id="circle_white" transform="translate(-102.788 -2189.788)">
		<ellipse class="st1" cx="196" cy="2283" rx="84" ry="84"/>
		<ellipse class="st2" cx="196" cy="2283" rx="82" ry="82"/>
	</g>
	<g class="st3">
		<path class="st4" d="M69.9,81.3h-4.5V80h9.9v1.4h-3.8c0,1.4-0.1,2.4-0.3,3.1c-0.1,0.6-0.3,1.1-0.6,1.6c-0.4,0.6-0.8,1.1-1.4,1.6
			c-0.5,0.4-1.1,0.8-1.9,1.1l-1.1-1.2c1.5-0.6,2.5-1.3,3-2.4c0.3-0.5,0.4-1,0.5-1.5C69.8,83.2,69.8,82.4,69.9,81.3z M66.2,76.7h8.2
			v1.4h-8.2V76.7z"/>
		<path class="st4" d="M79.4,78.8c-0.8,1.6-1.7,3-2.9,4.2l-1.3-0.9c1.8-1.8,2.9-3.8,3.5-6.2l1.7,0.3c-0.2,0.7-0.4,1.1-0.5,1.3h4.6
			L85,78c-0.5,3.3-1.5,5.8-3,7.5c-1.2,1.4-2.8,2.5-4.9,3.3l-1-1.2c2.1-0.8,3.8-2,4.9-3.5c1-1.4,1.7-3.1,2.1-5.3H79.4z"/>
		<path class="st4" d="M92.7,76.8c-0.6,5.8-3,9.8-7.4,11.9l-1.1-1.2c2.3-1.1,4-2.7,5.1-4.8c0.9-1.7,1.4-3.7,1.6-6.1L92.7,76.8z"/>
		<path class="st4" d="M93,88V77.1h8.3V88H93z M99.6,86.6v-8h-4.9v8H99.6z"/>
		<path class="st4" d="M102.3,81.1l0.7-1.2c1.7,0.6,2.9,1.1,3.8,1.6l-0.8,1.4C105.1,82.2,103.9,81.7,102.3,81.1z M111.5,78.4
			l1.5,0.9c-0.3,1.3-0.7,2.4-1.2,3.5c-0.5,1-1.1,1.8-1.7,2.5c-1.6,1.6-3.7,2.7-6.4,3.3L103,87c2.6-0.5,4.5-1.4,5.8-2.8
			c0.7-0.7,1.2-1.6,1.7-2.6C111,80.6,111.3,79.5,111.5,78.4z M103.6,77.9l0.8-1.2c1.5,0.5,2.7,1.1,3.6,1.7l-0.8,1.4
			C106.3,79.1,105.1,78.4,103.6,77.9z M110,75.5l1-0.3c0.4,0.7,0.8,1.5,1.1,2.5l-1,0.3C110.8,77.1,110.4,76.3,110,75.5z M111.8,75.1
			l1-0.3c0.4,0.8,0.8,1.5,1.1,2.4l-1,0.4C112.5,76.6,112.2,75.8,111.8,75.1z"/>
		<path class="st4" d="M113.7,81.4h8.5v1.6h-8.5V81.4z"/>
	</g>
	<g class="st3">
		<path class="st4" d="M71.4,109.6c1.7-2.6,2.7-6.2,3-10.5l1.8,0.2c-0.3,2.7-0.7,4.9-1.3,6.7c-0.5,1.6-1.1,3-1.9,4.4L71.4,109.6z
			 M77.9,99.2l1.7-0.2c0.4,4.3,1.5,7.8,3,10.5l-1.6,0.9c-0.9-1.7-1.6-3.6-2.1-5.6C78.5,103.1,78.2,101.3,77.9,99.2z M81.8,97
			c0.5,0,0.9,0.2,1.3,0.6c0.3,0.3,0.4,0.7,0.4,1.1c0,0.5-0.2,0.9-0.6,1.3c-0.3,0.3-0.7,0.4-1.1,0.4c-0.5,0-0.9-0.2-1.3-0.6
			c-0.3-0.3-0.4-0.7-0.4-1.1c0-0.5,0.2-0.9,0.6-1.3C80.9,97.2,81.3,97,81.8,97z M81.8,97.8c-0.3,0-0.5,0.1-0.7,0.3
			c-0.2,0.2-0.2,0.4-0.2,0.7c0,0.3,0.1,0.5,0.3,0.7c0.2,0.2,0.4,0.2,0.7,0.2c0.3,0,0.5-0.1,0.7-0.3c0.2-0.2,0.2-0.4,0.2-0.7
			c0-0.3-0.1-0.5-0.3-0.7C82.2,97.9,82,97.8,81.8,97.8z"/>
		<path class="st4" d="M83.7,103.4h8.5v1.6h-8.5V103.4z"/>
		<path class="st4" d="M94.3,102.4c2.1,0.6,4,1.3,5.7,2.3l-0.8,1.6c-1.4-1-3-1.7-4.9-2.3v6.6h-1.7V98h1.7V102.4z"/>
		<path class="st4" d="M105.3,101.2h3.7v1.4h-3.7c0,1.4-0.1,2.5-0.3,3.2c-0.1,0.6-0.4,1.3-0.7,1.8c-0.4,0.7-0.8,1.3-1.4,1.8
			c-0.6,0.5-1.3,0.9-2.2,1.4l-1.2-1.2c1.7-0.7,2.8-1.6,3.4-2.6c0.3-0.5,0.5-1.1,0.6-1.8c0.1-0.6,0.2-1.5,0.2-2.5H99v-1.4h4.6v-3.1
			h1.7V101.2z"/>
		<path class="st4" d="M109.5,103.4h8.5v1.6h-8.5V103.4z"/>
	</g>
</g>
</svg>
