<?xml version="1.0" encoding="utf-8"?>
<!-- Generator: Adobe Illustrator 26.0.1, SVG Export Plug-In . SVG Version: 6.00 Build 0)  -->
<svg version="1.1" id="Layer_1" xmlns="http://www.w3.org/2000/svg" xmlns:xlink="http://www.w3.org/1999/xlink" x="0px" y="0px"
	 viewBox="0 0 186.4 196.9" style="enable-background:new 0 0 186.4 196.9;" xml:space="preserve">
<style type="text/css">
	.st0{fill:#31A4FF;}
	.st1{fill:none;}
	.st2{fill:none;stroke:#FFFFFF;stroke-width:4;}
	.st3{enable-background:new    ;}
	.st4{fill:#FFFFFF;}
</style>
<rect id="arrow" x="84.6" y="176.7" transform="matrix(0.7071 -0.7071 0.7071 0.7071 -103.6461 119.9422)" class="st0" width="16.8" height="16.8"/>
<ellipse id="bg_circle_blue" class="st0" cx="93.2" cy="93.2" rx="93.2" ry="93.2"/>
<g id="circle_white" transform="translate(-366.788 -2189.788)">
	<ellipse class="st1" cx="460" cy="2283" rx="84" ry="84"/>
	<ellipse class="st2" cx="460" cy="2283" rx="82" ry="82"/>
</g>
<g class="st3">
	<path class="st4" d="M81.8,85.5l-1.9,0c-0.1,0-0.1,0-0.2,0c0,0,0-0.1,0-0.1v-0.9c0-0.1,0-0.1,0-0.2c0,0,0.1,0,0.1,0l1.9,0h3.7v-0.8
		h-2.1l-2.1,0c-0.1,0-0.1,0-0.1,0c0,0,0-0.1,0-0.1v-0.9c0-0.1,0-0.1,0-0.2c0,0,0.1,0,0.1,0l2.1,0h2.1v-0.8h-2.8l-2,0
		c-0.1,0-0.1,0-0.2,0c0,0,0-0.1,0-0.1v-0.9c0-0.1,0-0.1,0-0.1c0,0,0.1,0,0.1,0l2,0h0.9c-0.2-0.4-0.3-0.7-0.5-0.9
		c0-0.1-0.1-0.1-0.1-0.1c0,0,0.1-0.1,0.2-0.1l1-0.3h-2.4l-1.9,0c-0.1,0-0.1,0-0.2,0c0,0,0-0.1,0-0.1v-0.9c0-0.1,0-0.1,0-0.2
		c0,0,0.1,0,0.1,0l1.9,0h0.1c-0.2-0.4-0.5-0.8-0.9-1.3c0,0-0.1-0.1-0.1-0.1c0,0,0.1-0.1,0.2-0.2l0.9-0.4c0.1,0,0.1,0,0.1,0
		c0,0,0.1,0,0.1,0.1c0.4,0.5,0.8,1,1,1.5c0,0.1,0,0.1,0,0.1c0,0-0.1,0.1-0.2,0.1l-0.4,0.2h1.4v-1c0-0.6,0-1-0.1-1.3
		c0.6,0,1.1,0,1.5,0.1c0.1,0,0.2,0.1,0.2,0.1c0,0,0,0.1-0.1,0.3c-0.1,0.1-0.1,0.4-0.1,0.8v1h1.2v-1c0-0.6,0-1-0.1-1.3
		c0.6,0,1.1,0.1,1.4,0.1c0.1,0,0.2,0.1,0.2,0.1c0,0.1,0,0.1-0.1,0.2c-0.1,0.1-0.1,0.4-0.1,0.8v1h0.9c0.3-0.4,0.5-0.8,0.7-1.2
		c0.1-0.3,0.2-0.5,0.3-0.8c0.5,0.1,1,0.2,1.5,0.4c0.1,0,0.2,0.1,0.2,0.2c0,0.1,0,0.2-0.1,0.3c-0.1,0.1-0.2,0.2-0.3,0.3
		c-0.1,0.2-0.3,0.5-0.6,0.9H91l1.9,0c0.1,0,0.1,0,0.1,0c0,0,0,0.1,0,0.1v0.9c0,0.1,0,0.1,0,0.1s-0.1,0-0.1,0L91,79h-2.6
		c0.4,0.1,0.8,0.2,1.2,0.3c0.1,0,0.2,0.1,0.2,0.2c0,0.1-0.1,0.2-0.2,0.2c0,0-0.1,0.1-0.2,0.3l-0.3,0.5h1l2,0c0.1,0,0.1,0,0.1,0
		s0,0.1,0,0.1v0.9c0,0.1-0.1,0.1-0.2,0.1l-2,0h-3v0.8h2.4l2.1,0c0.1,0,0.1,0,0.1,0c0,0,0,0.1,0,0.1v0.9c0,0.1,0,0.1,0,0.1
		c0,0-0.1,0-0.1,0l-2.1,0h-2.4v0.8H91l1.9,0c0.1,0,0.1,0,0.1,0c0,0,0,0.1,0,0.1v0.9c0,0.1,0,0.1,0,0.1c0,0-0.1,0-0.1,0l-1.9,0h-2.7
		c1.2,0.8,2.8,1.5,5,1.9c-0.2,0.3-0.4,0.6-0.6,1c-0.1,0.3-0.2,0.4-0.3,0.4c0,0-0.2,0-0.3-0.1c-2-0.6-3.7-1.5-5-2.7l0.1,3
		c0,0.1,0,0.1,0,0.1c0,0-0.1,0-0.1,0h-1.3c-0.1,0-0.2-0.1-0.2-0.2c0,0,0-0.2,0-0.5c0-0.8,0-1.6,0-2.4c-1.2,1.1-2.8,2-4.8,2.7
		c-0.2,0.1-0.3,0.1-0.3,0.1c-0.1,0-0.2-0.1-0.3-0.4c-0.2-0.4-0.4-0.7-0.6-0.9c2.1-0.5,3.6-1.2,4.8-2.1H81.8z M88,79.6
		c0-0.1,0.1-0.3,0.2-0.6h-3.8c0,0,0.1,0,0.1,0.1c0.3,0.5,0.5,0.9,0.7,1.4h2.5C87.8,80.2,87.9,79.9,88,79.6z"/>
	<path class="st4" d="M102.4,83.7c0.5,0,0.9,0,1.4,0.1c-0.7-0.6-1.2-1.2-1.7-1.9h-1.6c-0.4,0.7-0.9,1.3-1.5,1.8c0.4,0,0.8,0,1.2,0.1
		c0.2,0,0.3,0.1,0.3,0.2c0,0,0,0.1-0.1,0.3c-0.1,0.1-0.1,0.4-0.1,0.7c-0.1,1.1-0.4,1.9-1,2.6c-0.5,0.6-1.2,1.1-2.2,1.5
		c-0.2,0.1-0.3,0.1-0.4,0.1c-0.1,0-0.2-0.1-0.3-0.4c-0.2-0.4-0.5-0.6-0.8-0.8c1.2-0.3,2-0.8,2.5-1.3c0.4-0.5,0.6-1.1,0.7-1.8
		c0-0.1,0-0.2,0-0.3c0-0.2,0-0.4,0-0.6c-0.9,0.8-1.9,1.4-3.1,1.9c-0.2,0.1-0.3,0.1-0.4,0.1c-0.1,0-0.2-0.1-0.3-0.4
		c-0.2-0.4-0.4-0.7-0.7-1c2-0.6,3.4-1.5,4.4-2.7h-0.3l-2.1,0c-0.1,0-0.1,0-0.1-0.1l0-1.5v-2.6l0-1.5c0-0.1,0-0.2,0.1-0.2l2.1,0h6
		l2.1,0c0.1,0,0.1,0,0.1,0s0,0.1,0,0.1l0,1.5v2.6l0,1.5c0,0.1-0.1,0.1-0.2,0.1l-2.1,0h-0.6c1.1,1.2,2.6,2,4.6,2.5
		c-0.3,0.3-0.5,0.6-0.7,1c-0.1,0.3-0.2,0.4-0.3,0.4c0,0-0.2,0-0.3-0.1c-1.1-0.4-2-1-2.9-1.6c0,0,0,0.1-0.1,0.2
		c0,0.2-0.1,0.6-0.1,1.4v1.5l0,1.7c0,0.1,0,0.1,0,0.2c0,0-0.1,0-0.1,0h-1.3c-0.1,0-0.1,0-0.1,0s0-0.1,0-0.1l0-1.7v-1.5
		C102.5,84.9,102.4,84.3,102.4,83.7z M97.7,78.4h2.9v-1.1h-2.9V78.4z M97.7,80.7h2.9v-1.1h-2.9V80.7z M105.1,77.3h-3v1.1h3V77.3z
		 M105.1,80.7v-1.1h-3v1.1H105.1z"/>
</g>
<g class="st3">
	<path class="st4" d="M67.1,109.6c1.7-2.6,2.7-6.2,3-10.5l1.8,0.2c-0.3,2.7-0.7,4.9-1.3,6.7c-0.5,1.6-1.1,3-1.9,4.4L67.1,109.6z
		 M73.6,99.2l1.7-0.2c0.4,4.3,1.5,7.8,3,10.5l-1.6,0.9c-0.9-1.7-1.6-3.6-2.1-5.6C74.2,103.1,73.9,101.3,73.6,99.2z M77.4,97
		c0.5,0,0.9,0.2,1.3,0.6c0.3,0.3,0.4,0.7,0.4,1.1c0,0.5-0.2,0.9-0.6,1.3c-0.3,0.3-0.7,0.4-1.1,0.4c-0.5,0-0.9-0.2-1.3-0.6
		c-0.3-0.3-0.4-0.7-0.4-1.1c0-0.5,0.2-0.9,0.6-1.3C76.6,97.2,77,97,77.4,97z M77.4,97.8c-0.3,0-0.5,0.1-0.7,0.3
		c-0.2,0.2-0.2,0.4-0.2,0.7c0,0.3,0.1,0.5,0.3,0.7c0.2,0.2,0.4,0.2,0.7,0.2c0.3,0,0.5-0.1,0.7-0.3c0.2-0.2,0.2-0.4,0.2-0.7
		c0-0.3-0.1-0.5-0.3-0.7C77.9,97.9,77.7,97.8,77.4,97.8z"/>
	<path class="st4" d="M79.4,103.4h8.5v1.6h-8.5V103.4z"/>
	<path class="st4" d="M90,102.4c2.1,0.6,4,1.3,5.7,2.3l-0.8,1.6c-1.4-1-3-1.7-4.9-2.3v6.6h-1.7V98H90V102.4z"/>
	<path class="st4" d="M101,101.2h3.7v1.4H101c0,1.4-0.1,2.5-0.3,3.2c-0.1,0.6-0.4,1.3-0.7,1.8c-0.4,0.7-0.8,1.3-1.4,1.8
		c-0.6,0.5-1.3,0.9-2.2,1.4l-1.2-1.2c1.7-0.7,2.8-1.6,3.4-2.6c0.3-0.5,0.5-1.1,0.6-1.8c0.1-0.6,0.2-1.5,0.2-2.5h-4.6v-1.4h4.6v-3.1
		h1.7V101.2z"/>
	<path class="st4" d="M105.2,103.4h8.5v1.6h-8.5V103.4z"/>
</g>
</svg>
