<?xml version="1.0" encoding="UTF-8"?>
<svg id="Layer_2" data-name="Layer 2" xmlns="http://www.w3.org/2000/svg" viewBox="0 0 29.39 19">
  <defs>
    <style>
      .cls-1 {
        fill: #fff;
      }
    </style>
  </defs>
  <g id="design">
    <g>
      <g>
        <polygon class="cls-1" points="0 .96 8.36 19 9.84 15.49 3.6 .96 0 .96"/>
        <polygon class="cls-1" points="22.33 .97 17.53 12.07 12.74 0 11.23 3.77 17.55 19 25.92 .97 22.33 .97"/>
      </g>
      <path class="cls-1" d="m28.41.97c.16,0,.32.04.48.13s.28.2.36.36.13.32.13.49-.04.33-.13.48-.21.28-.36.36-.32.13-.49.13-.33-.04-.49-.13-.28-.21-.36-.36-.13-.32-.13-.48.04-.33.13-.49.21-.28.37-.36.32-.13.48-.13Zm0,.16c-.14,0-.27.04-.4.11s-.23.17-.3.3-.11.27-.11.41.04.28.11.4.17.23.3.3.26.11.4.11.28-.04.4-.11.23-.17.3-.3.11-.26.11-.4-.04-.28-.11-.41-.17-.23-.3-.3-.26-.11-.4-.11Zm-.43,1.35v-1.05h.36c.12,0,.21,0,.27.03s.1.05.13.1.05.1.05.15c0,.08-.03.14-.08.2s-.13.09-.22.1c.04.02.07.03.09.06.04.04.09.11.16.21l.13.21h-.21l-.09-.17c-.07-.13-.13-.21-.18-.24-.03-.02-.08-.04-.14-.04h-.1v.45h-.17Zm.17-.59h.21c.1,0,.17-.01.2-.04s.05-.07.05-.12c0-.03,0-.06-.03-.08s-.04-.04-.07-.05-.09-.02-.17-.02h-.19v.32Z"/>
    </g>
  </g>
</svg>