<?xml version="1.0" encoding="UTF-8"?>
<svg id="Layer_2" data-name="Layer 2" xmlns="http://www.w3.org/2000/svg" viewBox="0 0 49.03 42.3">
  <g id="design">
    <g>
      <path d="m11.2,41.68h2v.55h-2.61v-3.5h2.58v.55h-2v.91h1.75v.55h-1.74l.02.94Zm5.64-.53l-1.86-2.41h-.57v3.5h.6v-2.49l1.92,2.48h.51v-3.5h-.6v2.42Zm-8.99.28l-1-2.68h-.68l1.44,3.52h.54l1.44-3.52h-.66l-1.08,2.68ZM6,1.61H0l13.95,30.09,2.47-5.85L6,1.61Zm29.91,38.6h0c-.67-.16-.83-.28-.83-.55h0c0-.23.21-.42.57-.42.35.01.68.14.95.36l.33-.46c-.36-.29-.81-.45-1.27-.44-.59-.07-1.12.35-1.18.94,0,.02,0,.04,0,.06h0c0,.64.42.87,1.16,1s.79.28.79.53h0c0,.26-.24.44-.61.44-.41,0-.81-.17-1.1-.46l-.37.44c.4.36.91.56,1.45.56.73,0,1.24-.39,1.24-1h0c0-.55-.38-.82-1.12-1Zm-17.42-.9h1.11v2.93h.61v-2.93h1.11v-.57h-2.82v.57Zm12.87,1.44h1.74v-.55h-1.74v-.91h2v-.55h-2.58v3.5h2.61v-.55h-2l-.03-.94Zm-6.65,0h0c0,.64-.33,1-.88,1s-.88-.35-.88-1v-2h-.61v2c-.09.76.45,1.44,1.21,1.53.09.01.18.01.27,0,.76.07,1.44-.5,1.51-1.26,0-.1,0-.21,0-.31v-2h-.61v2.03Zm4,.16l.94,1.32h-.73l-.86-1.22h-.77v1.22h-.64v-3.5h1.55c.37-.02.72.11,1,.35.19.2.3.47.29.75h0c.05.53-.32,1-.84,1.08h.06Zm-.51-.44c.43,0,.72-.23.72-.58h0c0-.37-.27-.58-.72-.58h-.89v1.18l.89-.02Z"/>
      <path d="m43.25,1.62h-6l-8,18.52L21.25,0l-2.52,6.29,10.55,25.41L43.25,1.62Z"/>
      <path d="m47.41,1.62c.27,0,.54.07.8.21s.46.34.61.6.22.53.22.82-.07.55-.21.81-.34.46-.6.6-.53.21-.81.21-.55-.07-.81-.21-.46-.34-.6-.6-.22-.53-.22-.81.07-.56.22-.82.35-.46.61-.6.53-.21.8-.21Zm0,.27c-.23,0-.45.06-.67.18s-.39.28-.51.5-.18.44-.18.68.06.46.18.67.29.38.5.5.44.18.68.18.46-.06.68-.18.38-.29.5-.5.18-.44.18-.67-.06-.46-.18-.68-.29-.39-.51-.5-.44-.18-.67-.18Zm-.71,2.26v-1.75h.6c.21,0,.35.02.45.05s.17.09.22.17.08.17.08.26c0,.13-.05.24-.14.33s-.21.15-.36.16c.06.03.11.06.15.09.07.07.16.18.26.35l.21.34h-.35l-.16-.28c-.12-.22-.22-.35-.3-.41-.05-.04-.13-.06-.23-.06h-.17v.74h-.28Zm.28-.99h.34c.16,0,.28-.02.34-.07s.09-.11.09-.19c0-.05-.01-.1-.04-.14s-.07-.07-.12-.09-.15-.03-.28-.03h-.32v.53Z"/>
    </g>
  </g>
</svg>